<svg xmlns="http://www.w3.org/2000/svg" width="230.633" height="74.407" viewBox="0 0 230.633 74.407">
  <path id="co_name" d="M220.381,72.409a8.948,8.948,0,0,0,5.9-6.7h-3.955a14.627,14.627,0,0,1-2.877,3.284l-.815-.673a14.258,14.258,0,0,0,4.039-5.438l1.006.362a13.673,13.673,0,0,1-.767,1.515h3.908l.778.372c-.91,3.97-2.912,6.653-6.507,8.157Zm-34.8.036c2.5-1.167,3.056-2.465,3.116-4.823h-4.746V66.66h9.863v.962h-4.038c-.072,2.587-.732,4.271-3.392,5.666Zm-24.636-.036c2.7-1.131,3.475-2.683,3.475-4.956V66.214h-3.811V69.27H159.57V66.214h-2.193V65.24h2.193V62.906h1.043V65.24h3.811V62.894h1.067V65.24h2.193v.975H165.49v1.179c0,2.767-1.031,4.584-3.836,5.895Zm39.243.83V68.789a18.3,18.3,0,0,1-3.116,1.66l-.5-.806a16.46,16.46,0,0,0,6.4-4.427l.743.59a15.368,15.368,0,0,1-2.54,2.3V73.24Zm-76.652,0V62.894h1.1v3.332a42.942,42.942,0,0,1,5.453,3.032l-.694.89a32.547,32.547,0,0,0-4.759-2.755V73.24Zm-45.222,0V69.45a18.136,18.136,0,0,1-3.7,2.021l-.575-.926a16.588,16.588,0,0,0,7.13-4.992h-6.5v-1.01h3.644V62.894h1.09v1.648h2.8l.682.541a17.924,17.924,0,0,1-3.116,3.261,28.284,28.284,0,0,1,3.955,2.3l-.719.794a21.936,21.936,0,0,0-3.608-2.2V73.24Zm20.837-.914a11.626,11.626,0,0,0,4.626-4.066,40.419,40.419,0,0,0-3.5-2.177l.648-.843c1.019.566,2.228,1.324,3.427,2.117a21.767,21.767,0,0,0,1.8-4.15l1.066.36a25.654,25.654,0,0,1-1.989,4.4,34.554,34.554,0,0,1,3.068,2.358l-.755.842a33.849,33.849,0,0,0-2.889-2.3,12.862,12.862,0,0,1-4.721,4.319ZM39.9,72.8a2.926,2.926,0,0,1-1.323-1.1,3.109,3.109,0,0,1-.5-1.659l1.147-.1a2.542,2.542,0,0,0,.381,1.136,2.07,2.07,0,0,0,.924.718,3.487,3.487,0,0,0,1.411.274,3.382,3.382,0,0,0,1.23-.208,1.7,1.7,0,0,0,.792-.57,1.317,1.317,0,0,0,.261-.79,1.2,1.2,0,0,0-.251-.758,1.861,1.861,0,0,0-.828-.545,16.25,16.25,0,0,0-1.637-.45,8.369,8.369,0,0,1-1.775-.576,2.486,2.486,0,0,1-.981-.859,2.113,2.113,0,0,1-.323-1.149,2.361,2.361,0,0,1,.4-1.307,2.448,2.448,0,0,1,1.154-.922,4.371,4.371,0,0,1,1.687-.314,4.6,4.6,0,0,1,1.8.331,2.6,2.6,0,0,1,1.2.972,2.812,2.812,0,0,1,.452,1.454l-1.167.089a1.893,1.893,0,0,0-.637-1.322,2.465,2.465,0,0,0-1.6-.447,2.562,2.562,0,0,0-1.61.406,1.218,1.218,0,0,0-.505.978,1.056,1.056,0,0,0,.357.819,4.854,4.854,0,0,0,1.835.658,12.09,12.09,0,0,1,2.035.588,2.792,2.792,0,0,1,1.186.941,2.3,2.3,0,0,1,.382,1.313,2.523,2.523,0,0,1-.42,1.388A2.768,2.768,0,0,1,43.767,72.8a4.188,4.188,0,0,1-1.772.362A5.27,5.27,0,0,1,39.9,72.8Zm167.26-.68a14.266,14.266,0,0,0,8.126-6l.7.818a15.682,15.682,0,0,1-8.281,6.219Zm-61.83,0a14.266,14.266,0,0,0,8.126-6l.7.818a15.682,15.682,0,0,1-8.281,6.219Zm-33.791,0a14.269,14.269,0,0,0,8.126-6l.694.818a15.682,15.682,0,0,1-8.281,6.219Zm-23.965.012a14.3,14.3,0,0,0,8.126-5.99l.694.794a15.682,15.682,0,0,1-8.281,6.219Zm82.392.217a5.087,5.087,0,0,0,2.7-4.908V63.664h1.079V67.49a6.212,6.212,0,0,1-2.949,5.63ZM62.714,68.212l.755-.7a27.9,27.9,0,0,1,2.384,2.129,28.994,28.994,0,0,0,3.824-4.451H61.359v-1.01H70.5l.85.6A38.068,38.068,0,0,1,66.6,70.389c.7.721,1.33,1.419,1.81,2.008l-.911.7A30.537,30.537,0,0,0,62.714,68.212Zm-6.373,4.8-3.273-4.67L51.562,69.81v3.2H50.346V63.779h1.216v4.577l4.566-4.577h1.649l-3.857,3.74,4.026,5.489Zm119.717-.766V63.471h1.091v7.76a12.041,12.041,0,0,0,3.451-3.152l.492,1a16.113,16.113,0,0,1-4.2,3.669Zm-42.671.253V71.471h6.987V65.565H133.4V64.542h8.09v7.952ZM21.228,70.217c-1.113.113-2.765.248-3.709.327l-.135-.61c.236-.011.522-.023.844-.039.213-.423.422-.875.567-1.241H17.389V68.1H22.1v.553H19.469c-.163.362-.372.79-.6,1.208.663-.039,1.377-.085,1.978-.13-.186-.22-.4-.445-.63-.672l.478-.3a8.154,8.154,0,0,1,1.371,1.6l-.545.333A5.2,5.2,0,0,0,21.228,70.217Zm-16.114.468V69.054A5.486,5.486,0,0,1,4,70.408l-.422-.491a4.643,4.643,0,0,0,1.371-1.585H3.839l.017.033-.337.5c-.073-.209-.174-.5-.292-.778v2.6h-.59V68.473a6.956,6.956,0,0,1-.467,1.106l-.41-.435a6.638,6.638,0,0,0,.86-2H1.855v-.547h.781V65.449h.59v1.146h.624v.547H3.226v.129c.2.333.416.694.562.965v-.463H5.115v-.846H4.546a4.112,4.112,0,0,1-.308.728l-.506-.249a4.889,4.889,0,0,0,.506-1.788l.573.09a6.056,6.056,0,0,1-.112.66h.416v-.919h.6v.919H6.767v.559H5.71v.846H7.07v.559H5.907a5.563,5.563,0,0,0,1.27,1.54l-.444.5A6.8,6.8,0,0,1,5.71,68.953v1.732Zm20.531,0V68.9a4.361,4.361,0,0,1-.59.486l-.354-.5a4.465,4.465,0,0,0,1.619-1.946H24.843v-.559h.8v-.936h.613v.936h.473l.36.152a5.57,5.57,0,0,1-.691,1.456c.32.31.663.643.86.868l-.438.412a8.505,8.505,0,0,0-.562-.733v2.143Zm-11.781-.028c-.747-.136-1.1-1.591-1.258-3.577H9.5V66.5h3.062c-.022-.333-.039-.677-.056-1.032h.675c.005.355.017.7.034,1.032h1.489v.575H13.252c.124,1.7.388,2.855.748,2.895.106.011.151-.164.174-.728l.545.158c-.08.947-.307,1.269-.693,1.269A.88.88,0,0,1,13.865,70.656Zm12.9-.118v-.57h1.344V67.79H27.091v-.57h1.023V65.449h.629v1.771h1.034v.57H28.742v2.178H30v.57Zm-17.283-.6c.32-.051.782-.124,1.27-.214V68.354H9.69v-.569h2.647v.569h-.955v1.258c.4-.073.8-.152,1.118-.215l.046.519c-.85.2-2.153.474-2.9.621Zm77.444-2.86.479-.89A21.485,21.485,0,0,1,90.574,67.6l-.5.879A21.519,21.519,0,0,0,86.931,67.08Zm-65.663.265v.293H18.255v-.333a5.213,5.213,0,0,1-.8.417l-.36-.53a5.052,5.052,0,0,0,2.338-1.744h.584a5.486,5.486,0,0,0,2.405,1.744l-.388.536A6.6,6.6,0,0,1,21.267,67.345Zm-2.687-.26h2.3a6.609,6.609,0,0,1-1.163-1.077A6.122,6.122,0,0,1,18.58,67.085Zm188.3-2.278.671-.867a27.775,27.775,0,0,1,3.128,2.153l-.707.878A19.6,19.6,0,0,0,206.877,64.807Zm-61.83,0,.671-.867a27.775,27.775,0,0,1,3.128,2.153l-.707.878A19.576,19.576,0,0,0,145.046,64.807Zm-33.791,0,.671-.867a27.72,27.72,0,0,1,3.128,2.153l-.706.878A19.612,19.612,0,0,0,111.256,64.807Zm-97.823.964.388-.31a3.708,3.708,0,0,1,.753.7l-.455.316A3.664,3.664,0,0,0,13.433,65.771Zm74.8-1.409.5-.867a21.656,21.656,0,0,1,3.068,1.48l-.5.853A20.725,20.725,0,0,0,88.237,64.362Zm5.537-.373.48-.445a8.941,8.941,0,0,1,1.462,1.468l-.5.456A8.412,8.412,0,0,0,93.774,63.989Zm132.54-.83.5-.385a8.591,8.591,0,0,1,1.174,1.672l-.528.385A7.644,7.644,0,0,0,226.314,63.159ZM185.3,64.711v-.963h7.179v.963Zm-90.241-1.7.48-.445A8.444,8.444,0,0,1,97,64.036l-.5.457A8.35,8.35,0,0,0,95.056,63.015Zm132.732-.421.492-.385a8.538,8.538,0,0,1,1.186,1.66l-.527.386A8.511,8.511,0,0,0,227.788,62.593Zm-81.1-7.4a3.791,3.791,0,0,1-1.474-3.373l2.283.34a2.183,2.183,0,0,0,.8,1.545,3.9,3.9,0,0,0,2.388.655,4.181,4.181,0,0,0,2.519-.655,3.222,3.222,0,0,0,1.2-1.834,15.141,15.141,0,0,0,.17-3.026,4.826,4.826,0,0,1-3.836,1.821,5.222,5.222,0,0,1-4.424-2.07,7.989,7.989,0,0,1-1.566-4.964,9.269,9.269,0,0,1,.718-3.674,5.76,5.76,0,0,1,2.081-2.6,5.608,5.608,0,0,1,3.2-.917,4.961,4.961,0,0,1,4.045,1.991V36.763h2.166V48.787a11.45,11.45,0,0,1-.659,4.6,4.832,4.832,0,0,1-2.088,2.141,7.211,7.211,0,0,1-3.517.786A6.612,6.612,0,0,1,146.686,55.2Zm1.566-15.521a5.685,5.685,0,0,0-1.1,3.791,6.049,6.049,0,0,0,1.083,3.995,3.565,3.565,0,0,0,5.428.007,5.855,5.855,0,0,0,1.1-3.923,5.719,5.719,0,0,0-1.129-3.851,3.486,3.486,0,0,0-2.72-1.3A3.384,3.384,0,0,0,148.252,39.678ZM164.7,53.462a2.23,2.23,0,0,0,1.1-.962,4.114,4.114,0,0,0,.392-1.827h-1.331V47.988h2.675v2.685a4.786,4.786,0,0,1-.522,2.39,3.407,3.407,0,0,1-1.657,1.408ZM4.091,49.737a7.893,7.893,0,0,1-2.949-3.661A13.109,13.109,0,0,1,.131,40.928,11.343,11.343,0,0,1,1.273,35.7,7.842,7.842,0,0,1,4.522,32.3a9.466,9.466,0,0,1,4.639-1.159,7.825,7.825,0,0,1,4.828,1.467,7.624,7.624,0,0,1,2.727,4.126l-2.492.589a5.943,5.943,0,0,0-1.931-3.051,5.136,5.136,0,0,0-3.184-.957,6.167,6.167,0,0,0-3.686,1.061,5.6,5.6,0,0,0-2.081,2.849,11.505,11.505,0,0,0-.6,3.687,11.75,11.75,0,0,0,.711,4.277,5.313,5.313,0,0,0,2.212,2.73,6.18,6.18,0,0,0,3.249.9,5.433,5.433,0,0,0,3.6-1.231,6.3,6.3,0,0,0,2-3.654l2.531.642a8.562,8.562,0,0,1-2.864,4.774A7.875,7.875,0,0,1,9.121,51,9.065,9.065,0,0,1,4.091,49.737Zm205.251-.616a7.586,7.586,0,0,1-1.729-5.35,9.718,9.718,0,0,1,.743-3.942,5.2,5.2,0,0,1,2.264-2.535,6.7,6.7,0,0,1,3.308-.844,5.736,5.736,0,0,1,3.692,1.146,5.262,5.262,0,0,1,1.84,3.254l-2.284.354a3.815,3.815,0,0,0-1.154-2.109,2.985,2.985,0,0,0-2-.707,3.638,3.638,0,0,0-2.883,1.278,6.076,6.076,0,0,0-1.109,4.04,6.282,6.282,0,0,0,1.07,4.073,3.476,3.476,0,0,0,2.792,1.271,3.284,3.284,0,0,0,2.31-.852,4.235,4.235,0,0,0,1.174-2.619l2.31.3a6.023,6.023,0,0,1-1.937,3.752,5.632,5.632,0,0,1-3.83,1.356A5.936,5.936,0,0,1,209.342,49.121ZM80.306,50.516a3.775,3.775,0,0,1-1.579-1.186A4.437,4.437,0,0,1,78,47.582a11.975,11.975,0,0,1-.144-2.2V36.763h2.349v7.714a13.749,13.749,0,0,0,.144,2.489,2.457,2.457,0,0,0,.939,1.46,2.9,2.9,0,0,0,1.774.53,3.859,3.859,0,0,0,1.984-.543,3.02,3.02,0,0,0,1.311-1.48,7.447,7.447,0,0,0,.385-2.718V36.763h2.349v13.91h-2.1V48.629a5.067,5.067,0,0,1-4.4,2.358A5.6,5.6,0,0,1,80.306,50.516ZM61.676,49.86a5.242,5.242,0,0,1-1.807-3.339l2.323-.367a3.258,3.258,0,0,0,1.09,2.148,3.79,3.79,0,0,0,2.5.747,3.657,3.657,0,0,0,2.4-.662,1.979,1.979,0,0,0,.783-1.552,1.434,1.434,0,0,0-.691-1.257,10.16,10.16,0,0,0-2.4-.8,21.9,21.9,0,0,1-3.581-1.132,3.474,3.474,0,0,1-1.514-1.324,3.515,3.515,0,0,1-.515-1.866,3.586,3.586,0,0,1,.424-1.722,3.809,3.809,0,0,1,1.154-1.316,4.834,4.834,0,0,1,1.494-.688,7.1,7.1,0,0,1,2.029-.282,7.992,7.992,0,0,1,2.864.472,3.891,3.891,0,0,1,1.82,1.277,5,5,0,0,1,.809,2.155l-2.3.314a2.522,2.522,0,0,0-.907-1.677,3.311,3.311,0,0,0-2.12-.6,3.827,3.827,0,0,0-2.31.537,1.565,1.565,0,0,0-.692,1.258,1.3,1.3,0,0,0,.287.824,2.056,2.056,0,0,0,.9.629q.352.131,2.074.6a28.856,28.856,0,0,1,3.478,1.094,3.532,3.532,0,0,1,1.546,1.238,3.468,3.468,0,0,1,.561,2.017,3.966,3.966,0,0,1-.685,2.22,4.432,4.432,0,0,1-1.977,1.611,7.184,7.184,0,0,1-2.923.569A6.487,6.487,0,0,1,61.676,49.86Zm-37.156-.746a7.5,7.5,0,0,1-1.794-5.4q0-3.863,2.14-5.723a6.434,6.434,0,0,1,4.358-1.546A6.208,6.208,0,0,1,33.9,38.328a7.168,7.168,0,0,1,1.813,5.193,9.233,9.233,0,0,1-.8,4.224,5.691,5.691,0,0,1-2.336,2.39,6.776,6.776,0,0,1-3.347.852A6.219,6.219,0,0,1,24.521,49.115ZM26.3,39.723a5.911,5.911,0,0,0-1.162,3.994,5.937,5.937,0,0,0,1.162,4,3.857,3.857,0,0,0,5.833-.007A6.085,6.085,0,0,0,33.3,43.639a5.763,5.763,0,0,0-1.168-3.909,3.861,3.861,0,0,0-5.826-.007Zm81.6,10.727a2.278,2.278,0,0,1-.992-1.068,8.481,8.481,0,0,1-.287-2.784v-8H104.9V36.763h1.722V33.319L108.96,31.9v4.859h2.361V38.6H108.96v8.134a4.11,4.11,0,0,0,.123,1.3.979.979,0,0,0,.4.459,1.56,1.56,0,0,0,.8.171,7.559,7.559,0,0,0,1.031-.092l.34,2.082a8.666,8.666,0,0,1-1.774.21A4.007,4.007,0,0,1,107.9,50.451Zm118.2.223V47.988h2.675v2.685Zm-46.808,0v-19.2h2.531v19.2Zm-82.828,0v-19.2h2.349v19.2Zm102.175,0V42.212a6.391,6.391,0,0,0-.274-2.155,2.269,2.269,0,0,0-.972-1.139,3.087,3.087,0,0,0-1.638-.426,3.8,3.8,0,0,0-2.59.956q-1.09.956-1.089,3.628v7.6h-2.349V36.763h2.114v1.978a4.978,4.978,0,0,1,4.411-2.292,5.766,5.766,0,0,1,2.3.452,3.621,3.621,0,0,1,1.572,1.185,4.562,4.562,0,0,1,.731,1.742,13.6,13.6,0,0,1,.13,2.292v8.553Zm-62.688,0V42.212a6.391,6.391,0,0,0-.274-2.155,2.269,2.269,0,0,0-.972-1.139,3.085,3.085,0,0,0-1.638-.426,3.8,3.8,0,0,0-2.59.956q-1.09.956-1.089,3.628v7.6h-2.349V36.763h2.114v1.978a4.976,4.976,0,0,1,4.41-2.292,5.766,5.766,0,0,1,2.3.452,3.623,3.623,0,0,1,1.572,1.185,4.561,4.561,0,0,1,.731,1.742,13.531,13.531,0,0,1,.13,2.292v8.553Zm-18.577,0V36.763h2.349v13.91Zm-66.256,0V42.212a6.388,6.388,0,0,0-.274-2.155,2.263,2.263,0,0,0-.972-1.139,3.085,3.085,0,0,0-1.638-.426,3.8,3.8,0,0,0-2.59.956q-1.09.956-1.089,3.628v7.6H42.205V36.763h2.114v1.978a4.977,4.977,0,0,1,4.411-2.292,5.77,5.77,0,0,1,2.3.452A3.625,3.625,0,0,1,52.6,38.086a4.571,4.571,0,0,1,.731,1.742,13.615,13.615,0,0,1,.13,2.292v8.553Zm66.256-16.489V31.472h2.349v2.712ZM128.1,24.053a3.791,3.791,0,0,1-1.474-3.373l2.283.341a2.185,2.185,0,0,0,.8,1.545,3.9,3.9,0,0,0,2.388.655,4.186,4.186,0,0,0,2.519-.655,3.224,3.224,0,0,0,1.2-1.834,15.146,15.146,0,0,0,.17-3.026,4.825,4.825,0,0,1-3.836,1.82,5.224,5.224,0,0,1-4.424-2.069,7.989,7.989,0,0,1-1.565-4.964,9.27,9.27,0,0,1,.717-3.674,5.762,5.762,0,0,1,2.081-2.6,5.6,5.6,0,0,1,3.2-.917A4.963,4.963,0,0,1,136.2,7.3V5.619h2.166V17.643a11.45,11.45,0,0,1-.659,4.6,4.832,4.832,0,0,1-2.088,2.141,7.214,7.214,0,0,1-3.517.786A6.608,6.608,0,0,1,128.1,24.053Zm1.566-15.52a5.685,5.685,0,0,0-1.1,3.791,6.05,6.05,0,0,0,1.083,3.995,3.565,3.565,0,0,0,5.428.007,5.855,5.855,0,0,0,1.1-3.923,5.716,5.716,0,0,0-1.129-3.851,3.486,3.486,0,0,0-2.72-1.3A3.384,3.384,0,0,0,129.661,8.533ZM3.8,19.1A6.1,6.1,0,0,1,1.05,16.81,6.493,6.493,0,0,1,0,13.359l2.388-.209a5.3,5.3,0,0,0,.79,2.363A4.3,4.3,0,0,0,5.1,17.007a7.251,7.251,0,0,0,2.935.57,7.027,7.027,0,0,0,2.557-.432,3.55,3.55,0,0,0,1.651-1.186,2.757,2.757,0,0,0,.542-1.643,2.506,2.506,0,0,0-.523-1.579A3.868,3.868,0,0,0,10.543,11.6a33.6,33.6,0,0,0-3.406-.937,17.339,17.339,0,0,1-3.693-1.2A5.174,5.174,0,0,1,1.4,7.682a4.388,4.388,0,0,1-.672-2.39,4.9,4.9,0,0,1,.821-2.718A5.1,5.1,0,0,1,3.954.655,9.081,9.081,0,0,1,7.464,0a9.551,9.551,0,0,1,3.751.688,5.408,5.408,0,0,1,2.5,2.023,5.834,5.834,0,0,1,.94,3.026l-2.427.184A3.941,3.941,0,0,0,10.9,3.17a5.138,5.138,0,0,0-3.333-.93,5.336,5.336,0,0,0-3.347.845,2.537,2.537,0,0,0-1.05,2.036,2.186,2.186,0,0,0,.743,1.7A10.046,10.046,0,0,0,7.731,8.192a25.283,25.283,0,0,1,4.234,1.225,5.814,5.814,0,0,1,2.466,1.958,4.781,4.781,0,0,1,.8,2.73,5.241,5.241,0,0,1-.875,2.889A5.761,5.761,0,0,1,11.842,19.1a8.726,8.726,0,0,1-3.686.754A10.971,10.971,0,0,1,3.8,19.1Zm184.249-1.133a7.358,7.358,0,0,1-1.782-5.271,7.7,7.7,0,0,1,1.8-5.449A6.084,6.084,0,0,1,192.743,5.3a5.916,5.916,0,0,1,4.541,1.9,7.566,7.566,0,0,1,1.762,5.344c0,.14,0,.349-.013.629H188.7a5.355,5.355,0,0,0,1.292,3.51,3.838,3.838,0,0,0,2.9,1.217,3.585,3.585,0,0,0,2.2-.68,4.524,4.524,0,0,0,1.448-2.175l2.427.3a5.946,5.946,0,0,1-2.127,3.313,7.182,7.182,0,0,1-8.788-.7Zm2-9.633a4.309,4.309,0,0,0-1.22,2.908h7.738a4.727,4.727,0,0,0-.887-2.633,3.594,3.594,0,0,0-2.91-1.362A3.723,3.723,0,0,0,190.049,8.33Zm-44.465,9.633a7.358,7.358,0,0,1-1.782-5.271,7.7,7.7,0,0,1,1.8-5.449A6.084,6.084,0,0,1,150.275,5.3a5.916,5.916,0,0,1,4.541,1.9,7.566,7.566,0,0,1,1.762,5.344c0,.14,0,.349-.013.629H146.23a5.355,5.355,0,0,0,1.292,3.51,3.838,3.838,0,0,0,2.9,1.217,3.585,3.585,0,0,0,2.2-.68,4.524,4.524,0,0,0,1.448-2.175l2.427.3a5.946,5.946,0,0,1-2.127,3.313,7.182,7.182,0,0,1-8.788-.7Zm2-9.633a4.309,4.309,0,0,0-1.22,2.908H154.1a4.727,4.727,0,0,0-.887-2.633,3.594,3.594,0,0,0-2.91-1.362A3.723,3.723,0,0,0,147.581,8.33ZM109.947,18.723a3.7,3.7,0,0,1-1.227-2.862,3.883,3.883,0,0,1,1.677-3.222,5.708,5.708,0,0,1,1.69-.773,16.759,16.759,0,0,1,2.088-.354,21.337,21.337,0,0,0,4.189-.812c.009-.323.014-.529.014-.616a2.608,2.608,0,0,0-.666-2.03,3.922,3.922,0,0,0-2.674-.8,4.132,4.132,0,0,0-2.447.584A3.563,3.563,0,0,0,111.422,9.9l-2.3-.314A5.736,5.736,0,0,1,110.156,7.2a4.523,4.523,0,0,1,2.074-1.4,9.217,9.217,0,0,1,3.145-.491,8.312,8.312,0,0,1,2.884.419,3.8,3.8,0,0,1,1.631,1.054,3.721,3.721,0,0,1,.731,1.6,13.339,13.339,0,0,1,.117,2.174V13.7a33.563,33.563,0,0,0,.15,4.158,5.263,5.263,0,0,0,.594,1.669h-2.453a5.014,5.014,0,0,1-.47-1.715,8.75,8.75,0,0,1-2.512,1.572,7.238,7.238,0,0,1-2.59.459A5.025,5.025,0,0,1,109.947,18.723Zm4.58-5.285a8.942,8.942,0,0,0-2.049.471,2.046,2.046,0,0,0-.926.766,2.086,2.086,0,0,0,.385,2.691,3.048,3.048,0,0,0,2.081.629,4.823,4.823,0,0,0,2.414-.6,3.674,3.674,0,0,0,1.554-1.63,5.734,5.734,0,0,0,.378-2.358v-.864A17.122,17.122,0,0,1,114.527,13.438Zm-39.65,5.285a3.7,3.7,0,0,1-1.227-2.862,3.883,3.883,0,0,1,1.677-3.222,5.714,5.714,0,0,1,1.69-.773,16.8,16.8,0,0,1,2.088-.354,21.335,21.335,0,0,0,4.189-.812c.008-.323.013-.529.013-.616a2.608,2.608,0,0,0-.666-2.03,3.92,3.92,0,0,0-2.674-.8,4.131,4.131,0,0,0-2.447.584A3.56,3.56,0,0,0,76.352,9.9l-2.3-.314A5.72,5.72,0,0,1,75.087,7.2a4.523,4.523,0,0,1,2.074-1.4A9.215,9.215,0,0,1,80.306,5.3a8.312,8.312,0,0,1,2.884.419,3.8,3.8,0,0,1,1.631,1.054,3.72,3.72,0,0,1,.731,1.6,13.317,13.317,0,0,1,.118,2.174V13.7a33.436,33.436,0,0,0,.15,4.158,5.247,5.247,0,0,0,.594,1.669H83.96a4.987,4.987,0,0,1-.47-1.715,8.75,8.75,0,0,1-2.512,1.572,7.24,7.24,0,0,1-2.59.459A5.026,5.026,0,0,1,74.877,18.723Zm4.581-5.285a8.949,8.949,0,0,0-2.049.471,2.049,2.049,0,0,0-.926.766,2.088,2.088,0,0,0,.385,2.691A3.049,3.049,0,0,0,78.949,18a4.823,4.823,0,0,0,2.414-.6,3.669,3.669,0,0,0,1.553-1.63,5.723,5.723,0,0,0,.378-2.358v-.864A17.131,17.131,0,0,1,79.458,13.438Zm144.375,5.869a2.277,2.277,0,0,1-.992-1.068,8.486,8.486,0,0,1-.286-2.784v-8h-1.723V5.619h1.723V2.175L224.89.76V5.619h2.362V7.453H224.89v8.133a4.109,4.109,0,0,0,.124,1.3.978.978,0,0,0,.4.459,1.556,1.556,0,0,0,.8.17,7.641,7.641,0,0,0,1.031-.092l.339,2.082a8.706,8.706,0,0,1-1.774.21A4.014,4.014,0,0,1,223.833,19.306Zm-10.332.223V11.068a6.372,6.372,0,0,0-.274-2.155,2.265,2.265,0,0,0-.972-1.139,3.089,3.089,0,0,0-1.638-.426,3.8,3.8,0,0,0-2.59.957q-1.089.955-1.089,3.628v7.6h-2.349V5.62H206.7V7.6a4.976,4.976,0,0,1,4.411-2.292,5.768,5.768,0,0,1,2.3.452,3.625,3.625,0,0,1,1.572,1.185,4.557,4.557,0,0,1,.731,1.742,13.612,13.612,0,0,1,.13,2.292v8.553Zm-34.939,0V10.767a6.5,6.5,0,0,0-.228-2.038,1.974,1.974,0,0,0-.829-1,2.58,2.58,0,0,0-1.409-.38,3.273,3.273,0,0,0-2.427.976,4.307,4.307,0,0,0-.965,3.124v8.081h-2.349V10.491a3.988,3.988,0,0,0-.574-2.357,2.172,2.172,0,0,0-1.88-.786,3.409,3.409,0,0,0-1.833.524,2.972,2.972,0,0,0-1.22,1.532,8.653,8.653,0,0,0-.378,2.908v7.217h-2.349V5.62h2.1V7.571a4.934,4.934,0,0,1,1.735-1.643,4.864,4.864,0,0,1,2.466-.622,4.546,4.546,0,0,1,2.525.642,3.436,3.436,0,0,1,1.39,1.794,4.971,4.971,0,0,1,4.28-2.436,4.21,4.21,0,0,1,3.171,1.146,4.909,4.909,0,0,1,1.109,3.53v9.548Zm-77.667,0V11.068a6.391,6.391,0,0,0-.274-2.155,2.269,2.269,0,0,0-.972-1.139,3.087,3.087,0,0,0-1.638-.426,3.8,3.8,0,0,0-2.59.957q-1.09.955-1.089,3.628v7.6H91.982V5.62H94.1V7.6a4.977,4.977,0,0,1,4.411-2.292,5.766,5.766,0,0,1,2.3.452,3.621,3.621,0,0,1,1.572,1.185,4.557,4.557,0,0,1,.731,1.742,13.593,13.593,0,0,1,.13,2.292v8.553Zm-35.344,0V3.458L59.992,19.529H57.709L52.176,3.183V19.529h-2.44V.328h3.81l4.528,13.6q.627,1.9.914,2.842.326-1.048,1.018-3.078L64.585.328H67.99v19.2Zm-31.822,0L26.917,9.81l-3.132,3.065v6.653H21.253V.328h2.531V9.849l9.5-9.521h3.432l-8.025,7.78,8.378,11.421Z" transform="translate(0.513 0.5)" stroke="rgba(0,0,0,0)" stroke-miterlimit="10" stroke-width="1"/>
</svg>
